<?xml version="1.0" standalone="no"?>
<!DOCTYPE svg PUBLIC "-//W3C//DTD SVG 20010904//EN"
 "http://www.w3.org/TR/2001/REC-SVG-20010904/DTD/svg10.dtd">
<svg version="1.0" xmlns="http://www.w3.org/2000/svg"
 width="512.000000pt" height="512.000000pt" viewBox="0 0 512.000000 512.000000"
 preserveAspectRatio="xMidYMid meet">
<metadata>
Created by potrace 1.16, written by Peter Selinger 2001-2019
</metadata>
<g transform="translate(0.000000,512.000000) scale(0.100000,-0.100000)"
fill="#000000" stroke="none">
<path d="M1590 4923 c-34 -12 -60 -47 -60 -79 0 -17 21 -81 46 -142 l46 -110
-48 -89 c-118 -217 -235 -375 -409 -548 -173 -174 -331 -291 -548 -409 l-89
-48 -206 86 c-225 94 -264 102 -300 63 -29 -31 -30 -97 -2 -122 10 -9 113 -56
227 -104 l208 -87 23 -64 c34 -93 78 -295 97 -435 39 -304 -2 -721 -97 -985
l-23 -65 -180 -75 c-205 -86 -208 -87 -224 -117 -29 -57 8 -124 69 -126 23 0
102 27 222 77 l187 78 88 -48 c217 -118 375 -235 548 -409 174 -173 291 -331
409 -548 l48 -88 -37 -90 c-41 -101 -40 -135 2 -169 34 -26 76 -25 107 3 14
12 40 58 59 102 l33 80 64 23 c264 95 681 136 985 97 140 -19 343 -63 434 -97
l65 -23 51 -119 c42 -101 55 -122 80 -133 58 -25 125 14 125 73 0 17 -21 81
-46 142 l-46 110 48 89 c118 217 235 375 409 548 173 174 331 291 548 409 l88
48 207 -86 c225 -93 264 -102 300 -63 29 31 30 97 2 122 -10 9 -113 56 -227
104 l-208 87 -23 64 c-34 93 -78 295 -97 435 -39 304 2 721 97 985 l23 65 184
76 c101 42 192 84 202 92 59 51 20 150 -59 150 -15 0 -111 -35 -214 -77 l-187
-78 -88 48 c-217 118 -375 235 -548 409 -174 173 -291 331 -409 548 l-48 88
37 90 c41 101 40 135 -2 169 -34 26 -76 25 -107 -2 -14 -13 -40 -59 -59 -103
l-33 -80 -76 -27 c-101 -35 -275 -73 -423 -93 -304 -39 -706 -1 -973 93 l-76
27 -34 80 c-59 144 -71 163 -104 174 -34 12 -36 12 -58 4z m340 -493 c74 -22
240 -51 365 -65 279 -32 610 -9 878 61 32 8 61 13 63 11 3 -3 -140 -355 -148
-362 -2 -1 -57 -11 -123 -21 -172 -27 -638 -27 -810 0 -66 10 -121 20 -123 21
-4 3 -152 358 -152 362 0 5 15 3 50 -7z m-141 -240 c85 -208 89 -167 -38 -335
-97 -129 -357 -389 -486 -486 -168 -127 -127 -123 -335 -38 -99 41 -179 76
-179 79 0 3 37 27 82 53 309 180 644 515 824 824 26 45 50 82 53 82 3 0 38
-80 79 -179z m1674 97 c179 -308 516 -645 824 -824 45 -26 82 -50 82 -53 0 -3
-80 -38 -179 -79 -208 -85 -167 -89 -335 38 -129 97 -389 357 -486 486 -127
168 -123 127 -38 335 41 99 76 179 79 179 3 0 27 -37 53 -82z m-1146 -428
c133 -13 485 -7 601 11 40 6 77 10 82 8 4 -2 -23 -77 -60 -167 -53 -129 -74
-167 -92 -174 -30 -12 -546 -12 -576 0 -22 8 -62 93 -153 322 -9 23 -9 24 36
18 25 -4 98 -12 162 -18z m-302 -217 c64 -153 67 -165 54 -190 -18 -35 -366
-383 -401 -401 -25 -13 -37 -10 -190 54 -90 37 -164 68 -165 69 -2 2 46 41
105 88 138 110 330 302 440 440 47 59 86 107 88 105 1 -1 32 -75 69 -165z
m1262 43 c104 -130 291 -316 425 -423 60 -47 107 -86 105 -88 -1 -1 -75 -32
-165 -69 -153 -64 -165 -67 -190 -54 -35 18 -383 366 -401 400 -12 25 -8 39
55 193 52 127 71 163 80 154 6 -7 47 -58 91 -113z m-500 -367 c-8 -18 -58
-140 -112 -270 -54 -131 -101 -238 -105 -238 -4 0 -51 107 -105 238 -54 130
-104 252 -112 270 l-13 32 230 0 230 0 -13 -32z m-493 -327 c58 -140 104 -256
103 -258 -2 -1 -125 48 -274 109 l-271 113 161 161 c126 126 163 158 169 146
3 -10 54 -131 112 -271z m978 -43 c-104 -46 -526 -217 -528 -215 -2 2 47 125
108 274 l113 271 162 -161 c129 -129 158 -163 145 -169z m-2389 214 c93 -39
170 -72 172 -74 1 -2 10 -55 19 -118 38 -257 38 -563 0 -820 -9 -63 -18 -116
-19 -118 -7 -8 -359 -151 -362 -148 -2 2 3 31 11 63 70 268 93 599 61 878 -14
125 -43 291 -65 365 -13 45 -13 53 3 47 6 -3 88 -37 180 -75z m3567 70 c0 -4
-5 -23 -10 -42 -22 -74 -51 -240 -65 -365 -32 -279 -9 -610 61 -878 8 -32 13
-61 11 -63 -3 -3 -355 140 -362 148 -9 10 -38 263 -44 386 -9 170 0 383 24
547 10 66 19 121 20 123 4 4 348 150 358 151 4 1 7 -2 7 -7z m-3011 -300 c112
-46 147 -66 154 -84 13 -30 13 -546 0 -576 -7 -18 -46 -39 -174 -92 -90 -37
-165 -67 -167 -66 -1 2 5 63 13 137 19 171 19 447 0 614 -8 72 -15 133 -15
137 0 8 -6 11 189 -70z m2436 -63 c-8 -74 -15 -213 -15 -309 0 -96 7 -235 15
-309 8 -74 14 -135 13 -137 -2 -1 -77 29 -167 66 -129 53 -167 74 -174 92 -13
30 -13 546 0 576 7 18 45 39 174 92 90 37 165 67 167 66 1 -2 -5 -63 -13 -137z
m-1787 -206 c127 -53 232 -99 232 -103 0 -4 -105 -50 -232 -103 -128 -53 -250
-103 -270 -111 l-37 -16 0 230 0 230 37 -16 c20 -8 142 -58 270 -111z m1270
-217 l-3 -114 -267 111 c-148 60 -268 113 -268 117 0 4 120 57 268 117 l267
111 3 -114 c1 -63 1 -165 0 -228z m-960 -65 c-1 -5 -52 -129 -113 -274 l-110
-265 -161 161 c-89 89 -159 163 -156 165 4 1 124 51 267 111 143 60 264 110
268 110 5 1 7 -3 5 -8z m625 -106 l265 -110 -161 -161 -162 -162 -13 32 c-18
41 -203 487 -210 505 -6 17 -35 27 281 -104z m-335 -232 l110 -268 -114 -3
c-63 -1 -165 -1 -228 0 l-114 3 110 268 c61 147 114 267 118 267 4 0 57 -120
118 -267z m-937 -36 c98 -86 309 -305 329 -341 12 -23 7 -39 -55 -188 -37 -90
-68 -164 -69 -165 -2 -2 -41 46 -88 105 -110 138 -302 330 -441 440 -60 48
-105 88 -100 90 4 1 76 31 158 66 83 35 157 64 166 65 9 1 54 -32 100 -72z
m1904 7 c88 -36 161 -67 162 -68 2 -2 -46 -41 -105 -88 -138 -110 -330 -302
-440 -440 -47 -59 -86 -107 -88 -105 -1 1 -32 76 -69 165 -61 149 -66 166 -54
188 33 62 392 414 422 414 6 0 83 -30 172 -66z m-2403 -246 c149 -111 402
-362 509 -503 127 -168 123 -127 38 -335 -41 -99 -76 -180 -79 -179 -3 0 -27
37 -53 82 -179 308 -516 645 -824 824 -45 26 -82 50 -82 53 -1 6 339 148 356
149 7 1 68 -40 135 -91z m2950 20 c98 -40 177 -75 177 -78 0 -3 -37 -27 -82
-53 -308 -179 -645 -516 -824 -824 -26 -45 -50 -82 -53 -82 -3 0 -38 80 -79
179 -85 208 -89 167 38 335 107 141 360 392 509 503 67 51 126 92 130 92 4 0
87 -33 184 -72z m-1339 -207 c13 -5 40 -60 87 -172 37 -90 66 -166 65 -167 -2
-2 -46 2 -97 10 -125 17 -571 17 -696 0 -51 -8 -95 -12 -97 -10 -4 4 129 326
139 336 20 19 546 22 599 3z m117 -516 c63 -9 116 -19 118 -20 8 -7 151 -359
148 -362 -2 -2 -31 3 -63 11 -381 99 -845 99 -1226 0 -32 -8 -61 -13 -63 -11
-3 3 140 355 148 362 2 2 57 10 123 19 66 9 134 18 150 20 17 2 147 3 290 2
188 -2 292 -8 375 -21z"/>
</g>
</svg>
