<svg id="flat" height="512" viewBox="0 0 512 512" width="512" xmlns="http://www.w3.org/2000/svg"><path d="m264 88 112 152 112-152-64-64h-96z" fill="#f6bb00"/><path d="m376 240-56-152h-56z" fill="#fcd453"/><path d="m376 240 56-152h56z" fill="#eda600"/><path d="m432 88-56-64-56 64z" fill="#fac623"/><path d="m272 336 64-64h88l64 64v88l-64 64h-88l-64-64z" fill="#548aff"/><path d="m336 272v64h-64z" fill="#4976f2"/><path d="m488 336h-64v-64z" fill="#4976f2"/><path d="m424 488v-64h64z" fill="#3b57c4"/><path d="m272 424h64v64z" fill="#4976f2"/><path d="m376 24 56 64-8-64z" fill="#eda600"/><path d="m328 24-8 64 56-64z" fill="#fcd453"/><path d="m336 424h88v64h-88z" fill="#486be0"/><path d="m336 272h88v64h-88z" fill="#7dafff"/><path d="m424 336h64v88h-64z" fill="#486be0"/><path d="m272 336h64v88h-64z" fill="#7dafff"/><path d="m24 336 64-64h88l64 64v88l-64 64h-88l-64-64z" fill="#548aff"/><path d="m88 272v64h-64z" fill="#4976f2"/><path d="m240 336h-64v-64z" fill="#4976f2"/><path d="m176 488v-64h64z" fill="#3b57c4"/><path d="m24 424h64v64z" fill="#4976f2"/><path d="m88 424h88v64h-88z" fill="#486be0"/><path d="m88 272h88v64h-88z" fill="#7dafff"/><path d="m176 336h64v88h-64z" fill="#486be0"/><path d="m24 336h64v88h-64z" fill="#7dafff"/><path d="m24 88 64-64h88l64 64v88l-64 64h-88l-64-64z" fill="#548aff"/><path d="m88 24v64h-64z" fill="#4976f2"/><path d="m240 88h-64v-64z" fill="#4976f2"/><path d="m176 240v-64h64z" fill="#3b57c4"/><path d="m24 176h64v64z" fill="#4976f2"/><path d="m88 176h88v64h-88z" fill="#486be0"/><path d="m88 24h88v64h-88z" fill="#7dafff"/><path d="m176 88h64v88h-64z" fill="#486be0"/><path d="m24 88h64v88h-64z" fill="#7dafff"/><path d="m432 88-8-64 64 64z" fill="#de9400"/><path d="m264 88 64-64-8 64z" fill="#ffe180"/></svg>